<svg width="21" height="20" viewBox="0 0 21 20" fill="none" xmlns="http://www.w3.org/2000/svg">
<path opacity="0.5" d="M14.5536 6.82693C14.8604 7.13211 14.8604 7.6268 14.5536 7.93182L9.28509 13.1731C8.97832 13.4781 8.48119 13.4781 8.17441 13.1731L5.66638 10.6779C5.3596 10.3729 5.3596 9.87823 5.66638 9.57321C5.973 9.26804 6.47028 9.26804 6.7769 9.57321L8.72968 11.5158L13.443 6.82693C13.7497 6.52191 14.247 6.52191 14.5536 6.82693ZM20.1624 10C20.1624 15.5275 15.6657 20 10.11 20C4.55355 20 0.0576172 15.5267 0.0576172 10C0.0576172 4.4725 4.55432 0 10.11 0C15.6665 0 20.1624 4.47327 20.1624 10ZM18.5917 10C18.5917 5.33615 14.7977 1.5625 10.11 1.5625C5.42172 1.5625 1.6283 5.33676 1.6283 10C1.6283 14.6638 5.42234 18.4375 10.11 18.4375C14.7983 18.4375 18.5917 14.6632 18.5917 10Z" fill="#083836"/>
</svg>
