<svg width="27" height="27" viewBox="0 0 27 27" fill="none" xmlns="http://www.w3.org/2000/svg">
<path d="M26.4357 24.4357C26.4357 25.5403 25.5403 26.4357 24.4357 26.4357H2C0.895431 26.4357 0 25.5403 0 24.4357V2C0 0.895431 0.895431 0 2 0H24.4357C25.5403 0 26.4357 0.895431 26.4357 2V24.4357Z" fill="#EA4C4C"/>
<path d="M26.4358 24.4357C26.4358 25.5403 25.5403 26.4357 24.4358 26.4357H15.2179C14.1133 26.4357 13.2179 25.5403 13.2179 24.4357V2C13.2179 0.895431 14.1133 0 15.2179 0H24.4358C25.5403 0 26.4358 0.895431 26.4358 2V24.4357Z" fill="#EA4C4C"/>
<path d="M19.6847 21.9998C19.2942 22.3903 18.661 22.3903 18.2705 21.9998L13.9391 17.6684C13.5486 17.2779 12.9155 17.2779 12.5249 17.6684L8.19355 21.9998C7.80303 22.3903 7.16986 22.3903 6.77934 21.9998L4.46471 19.6852C4.07418 19.2946 4.07418 18.6615 4.46471 18.2709L8.79608 13.9396C9.1866 13.549 9.1866 12.9159 8.79608 12.5254L4.46471 8.19399C4.07418 7.80346 4.07418 7.1703 4.46471 6.77977L6.77934 4.46514C7.16986 4.07462 7.80303 4.07462 8.19355 4.46514L12.5249 8.79651C12.9155 9.18704 13.5486 9.18704 13.9391 8.79651L18.2705 4.46514C18.661 4.07462 19.2942 4.07462 19.6847 4.46514L21.9994 6.77978C22.3899 7.1703 22.3899 7.80346 21.9994 8.19399L17.668 12.5254C17.2775 12.9159 17.2775 13.5491 17.668 13.9396L21.9994 18.2709C22.3899 18.6615 22.3899 19.2946 21.9994 19.6852L19.6847 21.9998Z" fill="#F5FBFF"/>
<path d="M21.9994 8.19407C22.3899 7.80354 22.3899 7.17037 21.9994 6.77985L19.683 4.46352C19.2932 4.07368 18.6614 4.07291 18.2706 4.46178L13.5125 9.19638C13.3239 9.38406 13.2179 9.63916 13.2179 9.90523V16.5599C13.2179 16.8259 13.3239 17.081 13.5125 17.2687L18.2706 22.0033C18.6614 22.3922 19.2932 22.3914 19.683 22.0016L21.9994 19.6852C22.3899 19.2947 22.3899 18.6615 21.9994 18.271L17.668 13.9396C17.2775 13.5491 17.2775 12.916 17.668 12.5254L21.9994 8.19407Z" fill="#CAE1F9"/>
</svg>
