<svg width="27" height="27" viewBox="0 0 27 27" fill="none" xmlns="http://www.w3.org/2000/svg">
<path fill-rule="evenodd" clip-rule="evenodd" d="M2.19777 4.63682e-08H25.551C26.3509 -0.000200179 26.9996 0.648079 27 1.44777V24.801C26.9998 25.6011 26.3511 26.2502 25.551 26.25H2.19896C1.39908 26.2502 0.750401 25.6019 0.75 24.8022V1.44896C0.7498 0.64908 1.39808 0.000400636 2.19777 4.63682e-08ZM18.8738 13.8842V24.0356H14.7722V13.8842H11.3628V9.91086H14.7722V6.9867C14.7722 3.59571 16.8424 1.75 19.8674 1.75C21.3161 1.75 22.5612 1.85795 22.9241 1.90621V5.45042H20.8383C19.1924 5.45042 18.8738 6.23248 18.8738 7.38024V9.91086H22.8088L22.296 13.8842H18.8738Z" fill="#FCF9F9"/>
</svg>
