<svg width="27" height="26" viewBox="0 0 27 26" fill="none" xmlns="http://www.w3.org/2000/svg">
<path d="M24.4894 6.58003C23.3157 4.55579 21.7237 2.9532 19.7129 1.7719C17.7019 0.590532 15.5063 0 13.1249 0C10.7437 0 8.54751 0.590713 6.53685 1.7719C4.5259 2.95314 2.93394 4.55579 1.76027 6.58003C0.586777 8.6042 0 10.8147 0 13.2112C0 16.09 0.834405 18.6788 2.50364 20.9781C4.17268 23.2775 6.32885 24.8687 8.97199 25.7517C9.27964 25.8092 9.5074 25.7688 9.65545 25.6315C9.80359 25.4939 9.87761 25.3217 9.87761 25.1156C9.87761 25.0812 9.87464 24.7716 9.86895 24.1867C9.86309 23.6016 9.86038 23.0913 9.86038 22.6559L9.46724 22.7243C9.21664 22.7706 8.9005 22.7901 8.51877 22.7846C8.13725 22.7792 7.74117 22.739 7.33109 22.6642C6.92083 22.59 6.53924 22.4179 6.18603 22.1484C5.83299 21.8789 5.58238 21.5261 5.43423 21.0906L5.26334 20.6948C5.14943 20.4312 4.9701 20.1385 4.7251 19.8175C4.4801 19.4964 4.23236 19.2786 3.98174 19.164L3.86208 19.0777C3.78235 19.0204 3.70837 18.9514 3.63996 18.8711C3.5716 18.7909 3.52042 18.7106 3.48625 18.6303C3.45201 18.5498 3.48038 18.4839 3.57166 18.4321C3.66294 18.3803 3.82791 18.3552 4.06728 18.3552L4.40894 18.4067C4.63682 18.4526 4.91868 18.5899 5.2549 18.8194C5.59093 19.0487 5.86717 19.3469 6.08367 19.7137C6.34585 20.1841 6.66172 20.5424 7.03217 20.789C7.40233 21.0356 7.77553 21.1587 8.15143 21.1587C8.52733 21.1587 8.85203 21.13 9.12555 21.073C9.39881 21.0157 9.65519 20.9294 9.8945 20.8148C9.99705 20.0461 10.2763 19.4555 10.7318 19.0428C10.0824 18.9741 9.49865 18.8706 8.98012 18.7331C8.46191 18.5953 7.92637 18.3718 7.37389 18.0618C6.82112 17.7523 6.36255 17.368 5.99808 16.9095C5.63355 16.4507 5.33438 15.8484 5.10101 15.1032C4.8675 14.3576 4.75072 13.4976 4.75072 12.5228C4.75072 11.1349 5.20084 9.95382 6.10091 8.97899C5.67928 7.93552 5.71909 6.76579 6.22044 5.46988C6.55085 5.36655 7.04084 5.44409 7.69017 5.70203C8.33962 5.96009 8.8151 6.18116 9.11715 6.36444C9.4192 6.54767 9.66122 6.70295 9.84349 6.82887C10.9033 6.5308 11.9969 6.38173 13.1247 6.38173C14.2526 6.38173 15.3464 6.5308 16.4063 6.82887L17.0557 6.4162C17.4997 6.14085 18.0241 5.88851 18.6276 5.65913C19.2315 5.42987 19.6932 5.36672 20.0124 5.47006C20.5249 6.76603 20.5706 7.93571 20.1488 8.97916C21.0488 9.954 21.4991 11.1354 21.4991 12.523C21.4991 13.4978 21.3819 14.3605 21.1488 15.1118C20.9153 15.8632 20.6136 16.4649 20.2434 16.9181C19.8728 17.3713 19.4114 17.7526 18.8589 18.0621C18.3063 18.3718 17.7705 18.5953 17.2523 18.7331C16.7339 18.8708 16.15 18.9743 15.5007 19.0431C16.0929 19.559 16.3891 20.3732 16.3891 21.4856V25.115C16.3891 25.3213 16.4603 25.4934 16.603 25.6309C16.7453 25.7682 16.9702 25.8086 17.2778 25.7512C19.9213 24.8683 22.0775 23.2771 23.7465 20.9776C25.4153 18.6784 26.25 16.0896 26.25 13.2107C26.2494 10.8145 25.6623 8.6042 24.4894 6.58003Z" fill="#FCF9F9"/>
</svg>
