<svg width="479" height="308" fill="none" xmlns="http://www.w3.org/2000/svg"><g clip-path="url(#clip0)"><path d="M156.861 73.1059h-1.728V26.8004c0-7.1079-2.887-13.9247-8.027-18.95071-5.14-5.02604-12.11-7.84965163-19.379-7.84965948H27.406C20.1375.0000137 13.1667 2.8236 8.02706 7.84963 2.88744 12.8757.00001949 19.6924 0 26.8003V280.836c-.00000344 7.108 2.88739 13.925 8.02699 18.951 5.13961 5.026 12.11041 7.849 19.37891 7.849H127.727c7.268 0 14.239-2.823 19.379-7.849 5.139-5.026 8.027-11.843 8.027-18.951V106.067h1.728V73.1059z" fill="#232222"/><path d="M149.3 26.9872V280.649c.001 4.831-1.786 9.499-5.029 13.143-3.244 3.644-7.726 6.017-12.62 6.682-.933.128-1.875.191-2.818.19H28.0264c-.9428.001-1.8846-.062-2.8183-.19-4.8925-.666-9.3736-3.039-12.6166-6.683-3.24296-3.644-5.02885-8.312-5.02815-13.142V26.9872c.00011-5.3083 2.15653-10.3991 5.99485-14.1527 3.8384-3.75353 9.0443-5.86229 14.4725-5.86239h12.2286c-.6032 1.44385-.8338 3.01068-.6714 4.56229.1624 1.5516.7127 3.0402 1.6024 4.3347.8898 1.2944 2.0916 2.3549 3.4994 3.0878 1.4079.733 2.9786 1.1158 4.5735 1.1149h57.4728c1.595.0008 3.165-.3822 4.573-1.1153 1.408-.733 2.609-1.7936 3.498-3.0881.89-1.2946 1.44-2.7832 1.601-4.3347.162-1.55149-.069-3.11809-.672-4.56159h13.097c5.428.0001 10.634 2.10887 14.473 5.86239 3.838 3.7536 5.994 8.8444 5.994 14.1527z" fill="white"/><path d="M149.3 216.355v64.294c.001 4.831-1.786 9.499-5.029 13.143-3.244 3.644-7.726 6.017-12.62 6.682H25.2081c-4.8925-.666-9.3736-3.039-12.6166-6.683-3.24296-3.644-5.02885-8.311-5.02815-13.142v-64.294H149.3z" fill="#E6E6E6"/><path d="M78.4319 271.654c7.4769 0 13.5382-5.928 13.5382-13.239 0-7.312-6.0613-13.239-13.5382-13.239-7.477 0-13.5383 5.927-13.5383 13.239 0 7.311 6.0613 13.239 13.5383 13.239z" fill="white"/><path d="M86.5548 258.415h-7.3103v-7.149h-1.6249v7.149h-7.3108v1.588h7.3108v7.149h1.6249v-7.149h7.3103v-1.588z" fill="#232222"/><path d="M102.471 175.185v11.891l-6.2441 7.071s-2.6292-.964-2.6292-7.392l-.9859-9.32 9.8592-2.25z" fill="#FFB9B9"/><path d="M96.2268 187.076s10.1882-6.749 10.5162-8.998c.329-2.25 9.772-12.377 12.489-6.106 2.564 5.917-7.81 10.99-7.81 10.99s-7.308 13.113-12.2374 12.792c-4.9296-.322-4.9296-6.428-2.9578-8.678zM90.3114 259.387l-.986 5.785 5.2584-1.286v-4.499h-4.2724z" fill="#FFB9B9"/><path d="M91.2973 262.6s6.0774-3.521 6.3251-1.921c.2476 1.6 2.8766 7.706 4.1916 8.349 1.314.643 2.957 7.713 0 7.392-2.2911-.249-10.6932-4.547-14.366-6.472-.4521-.238-.7935-.637-.954-1.114-.1606-.477-.1279-.996.0912-1.451.2154-.389.3639-.811.4397-1.248.0001-.642 4.2724-3.535 4.2724-3.535z" fill="#232222"/><path d="M88.3396 197.36s23.9904 10.927 21.6904 19.283c-2.301 8.356-10.8453 43.708-10.8453 43.708s-9.5305 2.249-10.1878 0c-.6573-2.25 6.2441-37.28 5.5869-38.566-.6573-1.285-12.817-9.641-12.817-9.641L56.7902 201.86l10.5164-9.642 21.033 5.142z" fill="#232222"/><path d="M106.415 261.315l2.958 7.392-5.259 2.249-3.286-5.784 5.587-3.857zM88.6681 144.654s-2.9577 3.857-.6573 5.785c2.3005 1.928.6573 8.999.6573 8.999l-2.9577 8.034-11.8311-2.249v-13.177l.6573-6.428s5.9155-5.463 6.5728-9.641c.6573-4.178 7.5587 8.677 7.5587 8.677z" fill="#FFB9B9"/><path d="M68.9498 194.789s15.4461 16.712 15.4461 17.355c0 .643 8.216 13.819 8.216 13.819l16.1031 35.03s-6.244 8.356-8.873 7.714c-2.6292-.643-21.3616-37.923-21.3616-37.923s-3.2864-8.356-12.1597-10.284c-8.8733-1.929-15.7747-8.678-12.4884-16.391 3.2864-7.713 15.1175-9.32 15.1175-9.32z" fill="#232222"/><path d="M88.6682 146.904c5.8081 0 10.5165-4.604 10.5165-10.284 0-5.68-4.7084-10.284-10.5165-10.284-5.8081 0-10.5165 4.604-10.5165 10.284 0 5.68 4.7084 10.284 10.5165 10.284z" fill="#FFB9B9"/><path d="M88.3395 153.332s-1.3146 7.391-2.6292 8.034c-1.3145.643-2.3004 2.892-5.2582-.321-2.9578-3.214-5.5869-9.642-5.5869-9.642l-10.1878 12.213-.9859 33.744s11.5024-2.892 15.1174 0c3.6151 2.893 11.5024 2.571 11.5024 2.571l-1.6432-6.427 1.3146-10.927-.3287-9.963-.3286-7.07-.9859-12.212z" fill="#E84A5F"/><path d="M87.1818 147.922s4.4442 2.196 4.7728 3.481c.3287 1.286 6.2442 3.857 6.2442 3.857s2.3002 2.249 2.3002 3.535-7.8871 16.069-7.8871 16.069-1.6432 9.963-.986 11.891c.6573 1.928-1.3145 9.32-1.3145 9.32l3.9437 4.499H90.64s-3.9436-1.928-3.9436-2.892.6572-7.713.9859-10.606c.3286-2.892.3286-13.176-.3287-16.711-.6572-3.536-.3286-12.856-.3286-15.105 0-2.25.1568-7.338.1568-7.338zM77.0014 143.042s-1.4789.327-5.7512 1.612c-4.2723 1.286-10.8451 3.214-13.1456 5.785-1.6147 1.902-3.0449 3.946-4.2723 6.106l1.3146 23.14s-2.6291 4.82-2.3005 7.391c.3286 2.571 2.9578 2.893.9859 8.356-1.9718 5.464-5.9155 10.284-2.3004 10.927 3.615.643 13.1455-1.607 17.4179-.321 4.2723 1.285 9.2019-4.821 9.2019-4.821s-6.5728.643-5.5869-1.928c.9859-2.571 11.8311-31.495 9.5306-37.923-2.3005-6.427-5.094-18.324-5.094-18.324z" fill="#232222"/><path d="M98.8561 157.188l1.6429 1.286s4.601 16.069 3.287 17.676c-1.315 1.606-11.8314 5.142-12.4887 2.892-.6573-2.25 7.5588-21.854 7.5588-21.854z" fill="#232222"/><path d="M50.2173 168.436s-4.9296 13.82-4.9296 17.676c0 3.857.6572 26.353.6572 26.353s3.2864 13.504 10.1879 9.647c6.9015-3.856-2.9578-10.289-2.9578-10.289s.3287-25.389 2.9578-28.925c2.6291-3.535 3.615-8.677 3.615-8.677l-9.5305-5.785z" fill="#FFB9B9"/><path d="M104.114 268.385s4.93-2.571 5.916-.643c.986 1.929 6.244 12.534 5.587 13.82-.658 1.285-4.273 6.427-8.545 5.142-4.272-1.286-4.601-8.035-4.601-8.035l-.329-7.713 1.972-2.571zM90.7275 134.136c-.7244.333-1.5838.532-2.039 1.177-.3373.477-.3709 1.097-.617 1.625-.2686.523-.731.926-1.2928 1.126-.5618.201-1.1809.185-1.7309-.045-.1344-.64-.5151-1.205-1.0634-1.579-.2769-.178-.605-.264-.9359-.247-.331.018-.6474.139-.9027.346-.6774.631-.4377 1.733-.7537 2.594-.2968.606-.705 1.154-1.2044 1.615-.7193.812-1.2923 1.763-2.1586 2.424-.8662.66-2.1798.946-3.0404.279-.7237-.561-.8737-1.596-.698-2.483.1758-.887.6116-1.703.8574-2.574.7986-2.828-.4747-5.848-.0807-8.757.5048-3.728 3.7446-6.672 7.3608-7.95 1.5049-.599 3.1524-.77 4.7523-.492 1.6538.361 3.0666 1.39 4.6505 1.979 1.6938.63 3.5356.74 5.3082 1.108 1.7726.368 3.5968 1.08 4.6248 2.539.718 1.017.964 2.281 1.559 3.372.684 1.245 1.793 2.216 3.133 2.745l-1.873-.105c.314.818.826 1.549 1.493 2.131-.879.175-1.792.057-2.594-.335.014.377.107.746.274 1.086.166.34.402.643.693.891-1.442-.043-2.963-.108-4.181-.863-.5967-.37-1.0833-.885-1.6449-1.305-1.197-.894-2.682-1.318-4.1297-1.724-.7602-.213-1.6752-.51-2.3626-.032-.5726.398-.663 1.113-1.4033 1.454zM58.7619 152.689l-4.9296 3.856-6.5728 14.784s9.2019 7.07 11.5024 6.106c2.3004-.964 6.2441-17.997 6.2441-17.997l-6.2441-6.749z" fill="#232222"/><path d="M122.156 174.933c.068-.079.067-.189-.003-.246-.069-.056-.179-.037-.247.042s-.066.189.003.245c.069.057.18.038.247-.041z" fill="#F2F2F2"/><path d="M117.407 146.505c-.566 0-1.108.22-1.508.612-.4.391-.625.921-.626 1.475v34.939c.001.553.226 1.084.626 1.475s.942.611 1.508.612h144.035c.566-.001 1.109-.221 1.509-.612.4-.391.625-.922.625-1.475v-34.939c0-.554-.225-1.084-.625-1.475-.4-.392-.943-.612-1.509-.612H117.407z" fill="white"/><path d="M117.407 146.505c-.566 0-1.108.22-1.508.612-.4.391-.625.921-.626 1.475v34.939c.001.553.226 1.084.626 1.475s.942.611 1.508.612h144.035c.566-.001 1.109-.221 1.509-.612.4-.391.625-.922.625-1.475v-34.939c0-.554-.225-1.084-.625-1.475-.4-.392-.943-.612-1.509-.612H117.407z" fill="#E6E6E6"/><path d="M117.674 183.27h143.502v-34.418H117.674v34.418z" fill="white"/><path d="M136.079 177.017c6.187 0 11.202-4.905 11.202-10.956 0-6.05-5.015-10.955-11.202-10.955-6.188 0-11.203 4.905-11.203 10.955 0 6.051 5.015 10.956 11.203 10.956z" fill="#E84A5F"/><path d="M161.951 158.758c-.494.001-.968.193-1.318.536-.35.342-.546.806-.546 1.29 0 .483.196.947.546 1.29.35.342.824.535 1.318.536h88.022c.495 0 .97-.193 1.32-.535.35-.343.547-.807.547-1.291 0-.485-.197-.949-.547-1.291-.35-.343-.825-.535-1.32-.535h-88.022zM161.951 169.713c-.494.001-.968.193-1.318.536-.35.342-.546.806-.546 1.29s.196.948.546 1.29c.35.342.824.535 1.318.536h88.022c.495 0 .97-.193 1.32-.535.35-.342.547-.807.547-1.291 0-.484-.197-.949-.547-1.291-.35-.343-.825-.535-1.32-.535h-88.022z" fill="#E6E6E6"/><path d="M25.2095 40.9324c-.4175.0004-.8178.1628-1.113.4515s-.4613.6801-.4617 1.0884v25.7842c.0004.4083.1664.7998.4617 1.0885.2952.2887.6955.4511 1.113.4516H131.503c.417-.0005.817-.1629 1.113-.4516.295-.2887.461-.6802.461-1.0885V42.4723c0-.4083-.166-.7997-.461-1.0884-.296-.2887-.696-.4511-1.113-.4515H25.2095z" fill="white"/><path d="M25.2095 40.9324c-.4175.0004-.8178.1628-1.113.4515s-.4613.6801-.4617 1.0884v25.7842c.0004.4083.1664.7998.4617 1.0885.2952.2887.6955.4511 1.113.4516H131.503c.417-.0005.817-.1629 1.113-.4516.295-.2887.461-.6802.461-1.0885V42.4723c0-.4083-.166-.7997-.461-1.0884-.296-.2887-.696-.4511-1.113-.4515H25.2095z" fill="#E6E6E6"/><path d="M25.4062 68.0641H131.306V42.6648H25.4062v25.3993z" fill="white"/><path d="M38.9883 63.449c4.5659 0 8.2672-3.6196 8.2672-8.0846s-3.7013-8.0846-8.2672-8.0846c-4.5659 0-8.2672 3.6196-8.2672 8.0846s3.7013 8.0846 8.2672 8.0846z" fill="#E84A5F"/><path d="M58.0816 49.9747c-.3654 0-.7159.1419-.9743.3946-.2584.2527-.4036.5954-.4036.9528 0 .3573.1452.7001.4036.9528.2584.2527.6089.3946.9743.3946h64.9574c.365 0 .715-.1419.974-.3946.258-.2527.403-.5955.403-.9528 0-.3574-.145-.7001-.403-.9528-.259-.2527-.609-.3946-.974-.3946H58.0816zM58.0817 58.0592c-.365.0007-.7149.1429-.9728.3955-.2578.2527-.4027.595-.4027.952 0 .3569.1449.6993.4027.9519.2579.2526.6078.3949.9728.3955h64.9573c.181.0003.36-.0343.528-.1019.167-.0676.319-.1668.447-.2919.129-.1252.23-.2738.3-.4374.069-.1637.105-.3391.105-.5162 0-.1772-.036-.3526-.105-.5162-.07-.1637-.171-.3123-.3-.4375-.128-.1251-.28-.2243-.447-.2919-.168-.0676-.347-.1022-.528-.1019H58.0817z" fill="#E6E6E6"/><path d="M25.2095 87.0073c-.4175.0004-.8178.1628-1.113.4515s-.4613.6801-.4617 1.0884v25.7838c.0004.409.1664.8.4617 1.089.2952.289.6955.451 1.113.452H131.503c.417-.001.817-.163 1.113-.452.295-.289.461-.68.461-1.089V88.5472c0-.4083-.166-.7997-.461-1.0884-.296-.2887-.696-.4511-1.113-.4515H25.2095z" fill="white"/><path d="M25.2095 87.0073c-.4175.0004-.8178.1628-1.113.4515s-.4613.6801-.4617 1.0884v25.7838c.0004.409.1664.8.4617 1.089.2952.289.6955.451 1.113.452H131.503c.417-.001.817-.163 1.113-.452.295-.289.461-.68.461-1.089V88.5472c0-.4083-.166-.7997-.461-1.0884-.296-.2887-.696-.4511-1.113-.4515H25.2095z" fill="#E6E6E6"/><path d="M25.4062 114.139H131.306V88.7398H25.4062v25.3992z" fill="white"/><path d="M38.9883 109.524c4.5659 0 8.2672-3.62 8.2672-8.085 0-4.4646-3.7013-8.0842-8.2672-8.0842-4.5659 0-8.2672 3.6196-8.2672 8.0842 0 4.465 3.7013 8.085 8.2672 8.085z" fill="#E84A5F"/><path d="M58.0816 96.0496c-.3654 0-.7159.142-.9743.3947-.2584.2526-.4036.5954-.4036.9527 0 .3574.1452.7001.4036.9528.2584.2527.6089.3947.9743.3947h64.9574c.365 0 .715-.142.974-.3947.258-.2527.403-.5954.403-.9528 0-.3573-.145-.7001-.403-.9527-.259-.2527-.609-.3947-.974-.3947H58.0816zM58.0817 104.134c-.365.001-.7149.143-.9728.396-.2578.252-.4027.595-.4027.952s.1449.699.4027.952c.2579.252.6078.394.9728.395h64.9573c.365 0 .715-.142.974-.395.258-.252.403-.595.403-.952 0-.358-.145-.7-.403-.953-.259-.253-.609-.395-.974-.395H58.0817z" fill="#E6E6E6"/></g><path d="M208.348 86.793h-16.671V132h-13.39V86.793h-16.366V76.4546h46.427V86.793zm-4.463 24.187c0-4.12.801-7.783 2.403-10.9873 1.603-3.23 3.904-5.7097 6.905-7.4391 3.001-1.7295 6.524-2.5942 10.568-2.5942 6.18 0 11.05 1.9202 14.611 5.7606 3.561 3.8149 5.341 9.016 5.341 15.603v.458c0 6.434-1.793 11.546-5.379 15.336-3.561 3.764-8.393 5.646-14.497 5.646-5.875 0-10.593-1.755-14.153-5.265-3.561-3.535-5.481-8.316-5.761-14.344l-.038-2.174zm12.856.801c0 3.815.598 6.612 1.793 8.393 1.196 1.78 2.963 2.67 5.303 2.67 4.578 0 6.918-3.522 7.02-10.567v-1.297c0-7.401-2.366-11.1017-7.096-11.1017-4.298 0-6.626 3.1917-6.982 9.5757l-.038 2.327zM249.969 132V76.4546h17.892c4.909 0 9.322 1.119 13.238 3.3571 3.917 2.2127 6.969 5.3536 9.156 9.4229 2.213 4.0438 3.332 8.5836 3.357 13.6194v2.556c0 5.086-1.081 9.652-3.242 13.696-2.137 4.018-5.163 7.172-9.08 9.461-3.891 2.263-8.24 3.408-13.047 3.433h-18.274zm13.391-45.207V121.7h4.654c3.84 0 6.791-1.361 8.851-4.082 2.06-2.747 3.09-6.816 3.09-12.208v-2.404c0-5.3658-1.03-9.4097-3.09-12.131-2.06-2.7213-5.061-4.082-9.004-4.082h-4.501zm34.906 24.187c0-4.12.802-7.783 2.404-10.9873 1.602-3.23 3.904-5.7097 6.905-7.4391 3.001-1.7295 6.523-2.5942 10.567-2.5942 6.18 0 11.051 1.9202 14.611 5.7606 3.561 3.8149 5.341 9.016 5.341 15.603v.458c0 6.434-1.793 11.546-5.379 15.336-3.56 3.764-8.393 5.646-14.496 5.646-5.875 0-10.593-1.755-14.154-5.265-3.56-3.535-5.481-8.316-5.76-14.344l-.039-2.174zm12.857.801c0 3.815.597 6.612 1.793 8.393 1.195 1.78 2.963 2.67 5.303 2.67 4.577 0 6.917-3.522 7.019-10.567v-1.297c0-7.401-2.365-11.1017-7.096-11.1017-4.298 0-6.625 3.1917-6.981 9.5757l-.038 2.327zm46.618 9.919h23.31V132h-36.7V76.4546h13.39V121.7zm41.926 10.3h-12.894V90.7224h12.894V132zM386.01 80.0787c0-1.8311.661-3.3317 1.984-4.5016 1.322-1.1699 3.039-1.7549 5.15-1.7549s3.828.585 5.15 1.7549c1.323 1.1699 1.984 2.6705 1.984 4.5016 0 1.8312-.661 3.3318-1.984 4.5017-1.322 1.1699-3.039 1.7548-5.15 1.7548s-3.828-.5849-5.15-1.7548c-1.323-1.1699-1.984-2.6705-1.984-4.5017zm43.223 40.3243c0-1.094-.572-1.971-1.717-2.633-1.144-.661-3.319-1.348-6.523-2.06-3.205-.712-5.85-1.64-7.935-2.785-2.086-1.17-3.675-2.581-4.769-4.234-1.093-1.653-1.64-3.548-1.64-5.685 0-3.789 1.564-6.9045 4.692-9.3461 3.128-2.467 7.223-3.7005 12.284-3.7005 5.443 0 9.817 1.2335 13.124 3.7005 3.306 2.467 4.959 5.7097 4.959 9.7281h-12.895c0-3.306-1.742-4.9594-5.226-4.9594-1.348 0-2.48.3815-3.395 1.1445-.916.7379-1.374 1.6659-1.374 2.7849 0 1.144.56 2.073 1.679 2.785 1.119.712 2.899 1.297 5.341 1.755 2.467.458 4.629 1.004 6.485 1.64 6.206 2.137 9.309 5.964 9.309 11.483 0 3.764-1.679 6.829-5.036 9.194-3.332 2.365-7.655 3.548-12.971 3.548-3.535 0-6.689-.636-9.461-1.907-2.772-1.272-4.934-3.002-6.485-5.189-1.552-2.187-2.327-4.489-2.327-6.905h12.017c.051 1.908.686 3.306 1.907 4.197 1.221.864 2.785 1.297 4.693 1.297 1.754 0 3.064-.356 3.929-1.068.89-.713 1.335-1.641 1.335-2.785zm33.419-39.9428v10.2622h6.791v8.927h-6.791v18.8836c0 1.552.28 2.633.839 3.243.56.61 1.666.916 3.319.916 1.272 0 2.34-.077 3.205-.229v9.194c-2.315.737-4.731 1.106-7.249 1.106-4.425 0-7.693-1.043-9.804-3.128-2.111-2.086-3.166-5.252-3.166-9.499V99.6494h-5.265v-8.927h5.265V80.4602h12.856zM176.494 205.927c0 1.273-.214 2.384-.642 3.335-.428.946-1.034 1.668-1.819 2.167-.785.5-1.7.749-2.746.749-1.023 0-1.929-.249-2.72-.749-.791-.505-1.406-1.221-1.846-2.149-.434-.933-.657-2.012-.669-3.237v-.936c0-1.248.217-2.351.651-3.308.434-.957 1.046-1.689 1.837-2.194.797-.511 1.706-.767 2.729-.767 1.04 0 1.956.253 2.746.758.797.5 1.409 1.228 1.837 2.185.428.951.642 2.06.642 3.326v.82zm-1.703-.838c0-1.54-.309-2.72-.927-3.54-.619-.826-1.484-1.239-2.595-1.239-1.082 0-1.935.413-2.559 1.239-.619.82-.937 1.962-.955 3.424v.954c0 1.493.313 2.667.937 3.523.63.85 1.495 1.275 2.595 1.275 1.105 0 1.961-.401 2.568-1.204.606-.808.918-1.965.936-3.469v-.963zm8.676-1.257c-.249-.042-.52-.063-.811-.063-1.082 0-1.816.461-2.203 1.383V212h-1.649v-9.648h1.605l.027 1.114c.541-.862 1.307-1.293 2.3-1.293.321 0 .565.042.731.125v1.534zm.955 3.264c0-1.504.347-2.699 1.043-3.585.695-.892 1.617-1.338 2.764-1.338 1.177 0 2.096.416 2.756 1.249l.08-1.07h1.507v9.416c0 1.249-.372 2.232-1.115 2.952-.737.719-1.73 1.079-2.978 1.079-.696 0-1.376-.149-2.042-.446-.666-.297-1.174-.705-1.525-1.222l.856-.99c.708.874 1.572 1.311 2.595 1.311.803 0 1.427-.226 1.873-.677.451-.452.677-1.088.677-1.909v-.829c-.66.761-1.56 1.141-2.702 1.141-1.129 0-2.045-.454-2.746-1.364-.696-.91-1.043-2.149-1.043-3.718zm1.658.187c0 1.088.223 1.944.669 2.568.446.618 1.07.927 1.873.927 1.04 0 1.804-.472 2.291-1.417v-4.406c-.505-.921-1.263-1.382-2.274-1.382-.802 0-1.429.312-1.881.937-.452.624-.678 1.548-.678 2.773zM201.025 212c-.095-.19-.172-.529-.231-1.017-.767.797-1.683 1.195-2.747 1.195-.951 0-1.733-.267-2.345-.802-.607-.541-.91-1.225-.91-2.051 0-1.005.381-1.784 1.142-2.336.767-.559 1.843-.839 3.228-.839h1.605v-.758c0-.576-.173-1.034-.517-1.373-.345-.345-.854-.517-1.525-.517-.589 0-1.082.149-1.481.446-.398.297-.597.657-.597 1.079h-1.659c0-.482.17-.945.509-1.391.345-.452.808-.809 1.391-1.07.588-.262 1.233-.393 1.935-.393 1.111 0 1.982.28 2.613.838.63.553.957 1.317.98 2.292v4.441c0 .886.113 1.59.339 2.113V212h-1.73zm-2.737-1.257c.517 0 1.007-.134 1.471-.402.464-.267.8-.615 1.008-1.043v-1.98h-1.293c-2.021 0-3.032.592-3.032 1.775 0 .517.172.921.517 1.213.345.291.788.437 1.329.437zm8.275-8.391l.053 1.212c.738-.927 1.701-1.391 2.89-1.391 2.039 0 3.067 1.151 3.085 3.451V212h-1.65v-6.385c-.006-.695-.166-1.209-.481-1.542-.309-.333-.794-.5-1.454-.5-.535 0-1.004.143-1.409.428-.404.286-.719.66-.945 1.124V212h-1.65v-9.648h1.561zM216.871 212h-1.65v-9.648h1.65V212zm-1.783-12.208c0-.267.08-.493.24-.677.167-.185.411-.277.732-.277s.564.092.731.277c.166.184.25.41.25.677 0 .268-.084.491-.25.669-.167.179-.41.268-.731.268s-.565-.089-.732-.268c-.16-.178-.24-.401-.24-.669zm5.983 10.862h5.645V212h-7.66v-1.213l5.323-7.071h-5.243v-1.364h7.312v1.168l-5.377 7.134zm11.37 1.524c-1.308 0-2.372-.428-3.193-1.284-.82-.862-1.23-2.012-1.23-3.451v-.303c0-.957.181-1.81.544-2.559.368-.755.879-1.344 1.533-1.766.66-.428 1.374-.642 2.14-.642 1.255 0 2.23.413 2.925 1.24.696.826 1.044 2.009 1.044 3.549v.686h-6.537c.024.952.301 1.721.83 2.31.535.583 1.212.874 2.033.874.582 0 1.076-.119 1.48-.357.404-.238.758-.553 1.061-.945l1.008.785c-.809 1.242-2.021 1.863-3.638 1.863zm-.206-8.649c-.665 0-1.224.243-1.676.731-.452.481-.731 1.159-.838 2.033h4.833v-.125c-.048-.838-.274-1.486-.678-1.944-.404-.463-.951-.695-1.641-.695zm12.654-3.514v2.337h1.801v1.275h-1.801v5.983c0 .387.08.678.241.874.16.19.434.285.82.285.19 0 .452-.035.785-.107V212c-.434.119-.856.178-1.266.178-.738 0-1.293-.223-1.668-.668-.375-.446-.562-1.079-.562-1.9v-5.983h-1.756v-1.275h1.756v-2.337h1.65zm3.121 7.072c0-.946.184-1.796.553-2.551.374-.755.892-1.337 1.551-1.747.666-.411 1.424-.616 2.274-.616 1.314 0 2.375.455 3.184 1.365.814.909 1.221 2.119 1.221 3.629v.116c0 .939-.181 1.783-.544 2.532-.356.743-.871 1.323-1.542 1.739-.666.416-1.433.624-2.301.624-1.308 0-2.369-.454-3.183-1.364-.809-.91-1.213-2.113-1.213-3.611v-.116zm1.659.196c0 1.07.246 1.929.74 2.577.499.648 1.165.972 1.997.972.838 0 1.504-.327 1.998-.981.493-.66.74-1.581.74-2.764 0-1.059-.253-1.915-.758-2.569-.5-.659-1.165-.989-1.998-.989-.814 0-1.471.324-1.97.972-.5.648-.749 1.575-.749 2.782zm8.792-.187c0-1.481.351-2.67 1.052-3.567.702-.904 1.62-1.356 2.755-1.356 1.13 0 2.025.387 2.685 1.16v-5.03h1.649V212h-1.516l-.08-1.034c-.66.808-1.578 1.212-2.755 1.212-1.118 0-2.03-.457-2.738-1.373-.701-.915-1.052-2.11-1.052-3.585v-.124zm1.65.187c0 1.094.225 1.95.677 2.568.452.618 1.076.927 1.873.927 1.046 0 1.81-.469 2.292-1.409v-4.431c-.494-.91-1.252-1.365-2.274-1.365-.809 0-1.439.312-1.891.937-.452.624-.677 1.548-.677 2.773zM275.127 212c-.095-.19-.172-.529-.232-1.017-.767.797-1.682 1.195-2.746 1.195-.951 0-1.733-.267-2.346-.802-.606-.541-.909-1.225-.909-2.051 0-1.005.38-1.784 1.141-2.336.767-.559 1.843-.839 3.228-.839h1.605v-.758c0-.576-.172-1.034-.517-1.373-.345-.345-.853-.517-1.525-.517-.588 0-1.082.149-1.48.446-.398.297-.597.657-.597 1.079h-1.659c0-.482.17-.945.508-1.391.345-.452.809-.809 1.391-1.07.589-.262 1.234-.393 1.935-.393 1.112 0 1.983.28 2.613.838.63.553.957 1.317.981 2.292v4.441c0 .886.113 1.59.339 2.113V212h-1.73zm-2.738-1.257c.518 0 1.008-.134 1.472-.402.463-.267.799-.615 1.007-1.043v-1.98h-1.293c-2.021 0-3.031.592-3.031 1.775 0 .517.172.921.517 1.213.345.291.787.437 1.328.437zm12.333-1.302c0-.446-.17-.791-.508-1.035-.333-.249-.919-.463-1.757-.642-.832-.178-1.495-.392-1.989-.642-.487-.249-.85-.547-1.087-.891-.232-.345-.348-.755-.348-1.231 0-.791.333-1.459.998-2.006.672-.547 1.528-.821 2.569-.821 1.093 0 1.979.283 2.657.847.684.565 1.025 1.287 1.025 2.167h-1.658c0-.452-.193-.841-.58-1.168-.38-.327-.862-.49-1.444-.49-.601 0-1.07.13-1.409.392-.339.262-.509.603-.509 1.026 0 .398.158.698.473.9.315.202.883.395 1.703.58.827.184 1.495.404 2.007.66.511.255.888.564 1.132.927.25.357.375.794.375 1.311 0 .862-.345 1.554-1.035 2.078-.689.517-1.584.775-2.684.775-.773 0-1.456-.136-2.051-.41-.594-.273-1.061-.654-1.4-1.141-.333-.494-.499-1.026-.499-1.596h1.649c.03.552.25.992.66 1.319.416.321.963.482 1.641.482.624 0 1.124-.125 1.498-.375.381-.255.571-.594.571-1.016zm13.946 0c0-.446-.169-.791-.508-1.035-.333-.249-.918-.463-1.757-.642-.832-.178-1.495-.392-1.988-.642-.488-.249-.85-.547-1.088-.891-.232-.345-.348-.755-.348-1.231 0-.791.333-1.459.999-2.006.672-.547 1.528-.821 2.568-.821 1.094 0 1.98.283 2.657.847.684.565 1.026 1.287 1.026 2.167h-1.659c0-.452-.193-.841-.579-1.168-.381-.327-.862-.49-1.445-.49-.6 0-1.07.13-1.409.392-.339.262-.508.603-.508 1.026 0 .398.157.698.472.9.316.202.883.395 1.704.58.826.184 1.495.404 2.006.66.511.255.889.564 1.133.927.249.357.374.794.374 1.311 0 .862-.345 1.554-1.034 2.078-.69.517-1.585.775-2.684.775-.773 0-1.457-.136-2.051-.41-.595-.273-1.062-.654-1.4-1.141-.333-.494-.5-1.026-.5-1.596h1.65c.03.552.25.992.66 1.319.416.321.963.482 1.641.482.624 0 1.123-.125 1.498-.375.38-.255.57-.594.57-1.016zm9.756 1.605c-.642.755-1.585 1.132-2.827 1.132-1.028 0-1.813-.297-2.354-.891-.535-.601-.806-1.487-.812-2.658v-6.277h1.65v6.233c0 1.462.595 2.193 1.784 2.193 1.26 0 2.098-.469 2.514-1.409v-7.017h1.65V212h-1.57l-.035-.954zM318.5 212c-.095-.19-.172-.529-.232-1.017-.767.797-1.682 1.195-2.746 1.195-.951 0-1.733-.267-2.345-.802-.607-.541-.91-1.225-.91-2.051 0-1.005.381-1.784 1.141-2.336.767-.559 1.843-.839 3.228-.839h1.606v-.758c0-.576-.173-1.034-.518-1.373-.344-.345-.853-.517-1.524-.517-.589 0-1.082.149-1.481.446-.398.297-.597.657-.597 1.079h-1.659c0-.482.17-.945.509-1.391.344-.452.808-.809 1.391-1.07.588-.262 1.233-.393 1.935-.393 1.111 0 1.982.28 2.612.838.63.553.957 1.317.981 2.292v4.441c0 .886.113 1.59.339 2.113V212h-1.73zm-2.737-1.257c.517 0 1.007-.134 1.471-.402.464-.267.799-.615 1.008-1.043v-1.98h-1.293c-2.022 0-3.032.592-3.032 1.775 0 .517.172.921.517 1.213.345.291.788.437 1.329.437zm12.332-1.302c0-.446-.169-.791-.508-1.035-.333-.249-.919-.463-1.757-.642-.832-.178-1.495-.392-1.988-.642-.488-.249-.851-.547-1.088-.891-.232-.345-.348-.755-.348-1.231 0-.791.333-1.459.999-2.006.671-.547 1.527-.821 2.568-.821 1.094 0 1.979.283 2.657.847.684.565 1.026 1.287 1.026 2.167h-1.659c0-.452-.193-.841-.58-1.168-.38-.327-.862-.49-1.444-.49-.601 0-1.07.13-1.409.392-.339.262-.508.603-.508 1.026 0 .398.157.698.472.9.315.202.883.395 1.703.58.827.184 1.495.404 2.007.66.511.255.888.564 1.132.927.25.357.375.794.375 1.311 0 .862-.345 1.554-1.035 2.078-.689.517-1.584.775-2.684.775-.773 0-1.456-.136-2.051-.41-.594-.273-1.061-.654-1.4-1.141-.333-.494-.499-1.026-.499-1.596h1.65c.029.552.249.992.659 1.319.417.321.964.482 1.641.482.624 0 1.124-.125 1.498-.375.381-.255.571-.594.571-1.016zm10.567-9.426v2.337h1.801v1.275h-1.801v5.983c0 .387.08.678.241.874.16.19.434.285.82.285.19 0 .452-.035.785-.107V212c-.434.119-.856.178-1.267.178-.737 0-1.293-.223-1.667-.668-.375-.446-.562-1.079-.562-1.9v-5.983h-1.756v-1.275h1.756v-2.337h1.65zM348.355 212c-.095-.19-.173-.529-.232-1.017-.767.797-1.682 1.195-2.747 1.195-.951 0-1.732-.267-2.345-.802-.606-.541-.909-1.225-.909-2.051 0-1.005.38-1.784 1.141-2.336.767-.559 1.843-.839 3.228-.839h1.605v-.758c0-.576-.172-1.034-.517-1.373-.345-.345-.853-.517-1.525-.517-.588 0-1.082.149-1.48.446-.398.297-.598.657-.598 1.079h-1.658c0-.482.169-.945.508-1.391.345-.452.809-.809 1.391-1.07.589-.262 1.234-.393 1.935-.393 1.112 0 1.983.28 2.613.838.63.553.957 1.317.981 2.292v4.441c0 .886.113 1.59.339 2.113V212h-1.73zm-2.738-1.257c.517 0 1.008-.134 1.472-.402.463-.267.799-.615 1.007-1.043v-1.98h-1.293c-2.021 0-3.032.592-3.032 1.775 0 .517.173.921.518 1.213.344.291.787.437 1.328.437zm11.379-6.911c-.25-.042-.521-.063-.812-.063-1.082 0-1.816.461-2.202 1.383V212h-1.65v-9.648h1.605l.027 1.114c.541-.862 1.308-1.293 2.3-1.293.321 0 .565.042.732.125v1.534zm5.35 8.346c-1.308 0-2.372-.428-3.192-1.284-.821-.862-1.231-2.012-1.231-3.451v-.303c0-.957.181-1.81.544-2.559.368-.755.88-1.344 1.534-1.766.66-.428 1.373-.642 2.14-.642 1.254 0 2.229.413 2.925 1.24.695.826 1.043 2.009 1.043 3.549v.686h-6.536c.023.952.3 1.721.829 2.31.535.583 1.213.874 2.033.874.583 0 1.076-.119 1.48-.357.405-.238.758-.553 1.061-.945l1.008.785c-.808 1.242-2.021 1.863-3.638 1.863zm-.205-8.649c-.666 0-1.225.243-1.677.731-.451.481-.731 1.159-.838 2.033h4.833v-.125c-.047-.838-.273-1.486-.677-1.944-.405-.463-.952-.695-1.641-.695zm6.697 8.471v-8.373h-1.525v-1.275h1.525v-.99c0-1.035.276-1.834.829-2.399.553-.565 1.334-.847 2.345-.847.381 0 .758.05 1.133.152l-.09 1.337c-.279-.053-.576-.08-.891-.08-.535 0-.949.157-1.24.472-.291.31-.437.755-.437 1.338v1.017h2.06v1.275h-2.06V212h-1.649zm11.494 0c-.095-.19-.173-.529-.232-1.017-.767.797-1.682 1.195-2.747 1.195-.951 0-1.732-.267-2.345-.802-.606-.541-.909-1.225-.909-2.051 0-1.005.38-1.784 1.141-2.336.767-.559 1.843-.839 3.228-.839h1.605v-.758c0-.576-.172-1.034-.517-1.373-.345-.345-.853-.517-1.525-.517-.588 0-1.082.149-1.48.446-.398.297-.598.657-.598 1.079h-1.658c0-.482.169-.945.508-1.391.345-.452.809-.809 1.391-1.07.589-.262 1.234-.393 1.935-.393 1.112 0 1.983.28 2.613.838.63.553.957 1.317.981 2.292v4.441c0 .886.113 1.59.339 2.113V212h-1.73zm-2.738-1.257c.517 0 1.008-.134 1.472-.402.463-.267.799-.615 1.007-1.043v-1.98h-1.293c-2.021 0-3.032.592-3.032 1.775 0 .517.173.921.518 1.213.344.291.787.437 1.328.437zm12.333-1.302c0-.446-.17-.791-.509-1.035-.333-.249-.918-.463-1.756-.642-.833-.178-1.495-.392-1.989-.642-.487-.249-.85-.547-1.088-.891-.232-.345-.347-.755-.347-1.231 0-.791.332-1.459.998-2.006.672-.547 1.528-.821 2.568-.821 1.094 0 1.98.283 2.658.847.683.565 1.025 1.287 1.025 2.167h-1.658c0-.452-.194-.841-.58-1.168-.381-.327-.862-.49-1.445-.49-.6 0-1.07.13-1.409.392-.338.262-.508.603-.508 1.026 0 .398.158.698.473.9.315.202.883.395 1.703.58.826.184 1.495.404 2.006.66.512.255.889.564 1.133.927.249.357.374.794.374 1.311 0 .862-.344 1.554-1.034 2.078-.69.517-1.584.775-2.684.775-.773 0-1.457-.136-2.051-.41-.595-.273-1.061-.654-1.4-1.141-.333-.494-.499-1.026-.499-1.596h1.649c.03.552.25.992.66 1.319.416.321.963.482 1.641.482.624 0 1.123-.125 1.498-.375.38-.255.571-.594.571-1.016zm-219.675 23.737c-1.308 0-2.372-.428-3.192-1.284-.821-.862-1.231-2.012-1.231-3.451v-.303c0-.957.182-1.81.544-2.559.369-.755.88-1.344 1.534-1.766.66-.428 1.373-.642 2.14-.642 1.254 0 2.229.413 2.925 1.24.695.826 1.043 2.009 1.043 3.549v.686h-6.536c.024.952.3 1.721.829 2.31.535.583 1.213.874 2.033.874.583 0 1.076-.119 1.481-.357.404-.238.758-.553 1.061-.945l1.007.785c-.808 1.242-2.021 1.863-3.638 1.863zm-.205-8.649c-.666 0-1.225.243-1.676.731-.452.481-.732 1.159-.839 2.033h4.834v-.125c-.048-.838-.274-1.486-.678-1.944-.404-.463-.951-.695-1.641-.695zm7.437-1.177l.045 1.07c.707-.833 1.661-1.249 2.862-1.249 1.349 0 2.268.517 2.755 1.552.321-.464.738-.838 1.249-1.124.517-.285 1.126-.428 1.828-.428 2.116 0 3.192 1.121 3.228 3.362V233h-1.65v-6.367c0-.689-.157-1.204-.472-1.543-.315-.344-.845-.517-1.588-.517-.612 0-1.12.185-1.525.553-.404.363-.639.853-.704 1.471V233h-1.659v-6.322c0-1.403-.686-2.105-2.059-2.105-1.082 0-1.822.461-2.221 1.382V233h-1.649v-9.648h1.56zm24.95 8.694c-.642.755-1.584 1.132-2.826 1.132-1.029 0-1.814-.297-2.355-.891-.535-.601-.805-1.487-.811-2.658v-6.277h1.65v6.233c0 1.462.594 2.193 1.783 2.193 1.26 0 2.099-.469 2.515-1.409v-7.017h1.649V233h-1.569l-.036-.954zm5.672-8.694l.044 1.07c.708-.833 1.662-1.249 2.863-1.249 1.349 0 2.268.517 2.755 1.552.321-.464.737-.838 1.248-1.124.518-.285 1.127-.428 1.828-.428 2.117 0 3.193 1.121 3.228 3.362V233h-1.649v-6.367c0-.689-.158-1.204-.473-1.543-.315-.344-.844-.517-1.587-.517-.612 0-1.121.185-1.525.553-.404.363-.639.853-.704 1.471V233h-1.659v-6.322c0-1.403-.687-2.105-2.06-2.105-1.082 0-1.822.461-2.22 1.382V233h-1.65v-9.648h1.561zM228.892 233h-1.65v-13.697h1.65V233zm8.605-.954c-.642.755-1.585 1.132-2.827 1.132-1.029 0-1.813-.297-2.354-.891-.535-.601-.806-1.487-.812-2.658v-6.277h1.65v6.233c0 1.462.594 2.193 1.783 2.193 1.261 0 2.099-.469 2.515-1.409v-7.017h1.65V233h-1.57l-.035-.954zm3.727-3.95c0-1.504.348-2.699 1.043-3.585.696-.892 1.617-1.338 2.765-1.338 1.177 0 2.095.416 2.755 1.249l.08-1.07h1.507v9.416c0 1.249-.371 2.232-1.114 2.952-.738.719-1.73 1.079-2.979 1.079-.695 0-1.376-.149-2.042-.446-.666-.297-1.174-.705-1.525-1.222l.856-.99c.708.874 1.573 1.311 2.595 1.311.803 0 1.427-.226 1.873-.677.452-.452.678-1.088.678-1.909v-.829c-.66.761-1.561 1.141-2.702 1.141-1.13 0-2.045-.454-2.747-1.364-.695-.91-1.043-2.149-1.043-3.718zm1.659.187c0 1.088.222 1.944.668 2.568.446.618 1.07.927 1.873.927 1.04 0 1.804-.472 2.292-1.417v-4.406c-.506-.921-1.264-1.382-2.274-1.382-.803 0-1.43.312-1.882.937-.452.624-.677 1.548-.677 2.773zM257.828 233c-.095-.19-.173-.529-.232-1.017-.767.797-1.682 1.195-2.747 1.195-.951 0-1.733-.267-2.345-.802-.606-.541-.909-1.225-.909-2.051 0-1.005.38-1.784 1.141-2.336.767-.559 1.843-.839 3.228-.839h1.605v-.758c0-.576-.172-1.034-.517-1.373-.345-.345-.853-.517-1.525-.517-.588 0-1.082.149-1.48.446-.398.297-.598.657-.598 1.079h-1.658c0-.482.169-.945.508-1.391.345-.452.809-.809 1.391-1.07.589-.262 1.234-.393 1.935-.393 1.112 0 1.983.28 2.613.838.63.553.957 1.317.981 2.292v4.441c0 .886.113 1.59.339 2.113V233h-1.73zm-2.738-1.257c.517 0 1.008-.134 1.471-.402.464-.267.8-.615 1.008-1.043v-1.98h-1.293c-2.021 0-3.032.592-3.032 1.775 0 .517.173.921.518 1.213.344.291.787.437 1.328.437zm11.378-6.911c-.249-.042-.52-.063-.811-.063-1.082 0-1.816.461-2.203 1.383V233h-1.649v-9.648h1.605l.027 1.114c.541-.862 1.307-1.293 2.3-1.293.321 0 .565.042.731.125v1.534zm11.673 5.609c0-.446-.169-.791-.508-1.035-.333-.249-.919-.463-1.757-.642-.832-.178-1.495-.392-1.988-.642-.488-.249-.851-.547-1.088-.891-.232-.345-.348-.755-.348-1.231 0-.791.333-1.459.999-2.006.671-.547 1.527-.821 2.568-.821 1.094 0 1.979.283 2.657.847.684.565 1.026 1.287 1.026 2.167h-1.659c0-.452-.193-.841-.58-1.168-.38-.327-.862-.49-1.444-.49-.601 0-1.07.13-1.409.392-.339.262-.508.603-.508 1.026 0 .398.157.698.472.9.315.202.883.395 1.703.58.827.184 1.495.404 2.007.66.511.255.888.564 1.132.927.25.357.375.794.375 1.311 0 .862-.345 1.554-1.035 2.078-.689.517-1.584.775-2.684.775-.773 0-1.456-.136-2.051-.41-.594-.273-1.061-.654-1.4-1.141-.333-.494-.499-1.026-.499-1.596h1.65c.029.552.249.992.659 1.319.417.321.964.482 1.641.482.624 0 1.124-.125 1.498-.375.381-.255.571-.594.571-1.016zm3.362-2.354c0-.946.184-1.796.553-2.551.374-.755.891-1.337 1.551-1.747.666-.411 1.424-.616 2.274-.616 1.314 0 2.375.455 3.184 1.365.814.909 1.221 2.119 1.221 3.629v.116c0 .939-.181 1.783-.544 2.532-.356.743-.871 1.323-1.542 1.739-.666.416-1.433.624-2.301.624-1.308 0-2.369-.454-3.183-1.364-.809-.91-1.213-2.113-1.213-3.611v-.116zm1.658.196c0 1.07.247 1.929.741 2.577.499.648 1.165.972 1.997.972.838 0 1.504-.327 1.997-.981.494-.66.741-1.581.741-2.764 0-1.059-.253-1.915-.758-2.569-.5-.659-1.166-.989-1.998-.989-.814 0-1.471.324-1.971.972-.499.648-.749 1.575-.749 2.782zm3.469-8.98h1.998l-2.39 2.622h-1.329l1.721-2.622zm7.571 10.032h-1.489l-.116-9.318h1.73l-.125 9.318zm-1.668 2.836c0-.268.081-.491.241-.669.167-.184.41-.277.731-.277s.565.093.732.277c.166.178.249.401.249.669 0 .267-.083.49-.249.668-.167.173-.411.259-.732.259s-.564-.086-.731-.259c-.16-.178-.241-.401-.241-.668z" fill="#232222"/><defs><clipPath id="clip0"><path fill="white" d="M0 0h263.576v307.636H0z"/></clipPath></defs></svg>